<svg xmlns="http://www.w3.org/2000/svg" width="90" height="90" viewBox="10 10 90 90" color="text" class="sc-bdfBwQ krvJBA"><defs><linearGradient id="linear-gradient" x1="0.497" y1="-0.01" x2="0.503" y2="1.013" gradientUnits="objectBoundingBox"><stop offset="0" stop-color="#ffe88d"></stop><stop offset="0.01" stop-color="#ffe88d"></stop><stop offset="0.069" stop-color="#f5d485"></stop><stop offset="0.246" stop-color="#da9e72"></stop><stop offset="0.42" stop-color="#c37261"></stop><stop offset="0.586" stop-color="#b14f54"></stop><stop offset="0.742" stop-color="#a5364b"></stop><stop offset="0.884" stop-color="#9d2745"></stop><stop offset="1" stop-color="#9b2244"></stop></linearGradient><filter id="Elipse_1140" x="0" y="0" width="104" height="104" filterUnits="userSpaceOnUse"><feGaussianBlur stdDeviation="8" result="blur"></feGaussianBlur><feFlood flood-color="#ffc2c2"></feFlood><feComposite operator="in" in2="blur"></feComposite><feComposite in="SourceGraphic"></feComposite></filter><clipPath id="clip-path"><rect id="Rect치ngulo_5933" data-name="Rect치ngulo 5933" width="33.661" height="20.651" transform="translate(8414.82 2320.23)" fill="none"></rect></clipPath><clipPath id="clip-path-2"><rect id="Rect치ngulo_5934" data-name="Rect치ngulo 5934" width="32.974" height="10.426" transform="translate(8414.997 2313.051)" fill="none"></rect></clipPath></defs><g id="Grupo_19088" data-name="Grupo 19088" transform="translate(-8379.652 -2272.95)"><g transform="matrix(1, 0, 0, 1, 8379.65, 2272.95)" filter="url(#Elipse_1140)"><circle id="Elipse_1140-2" data-name="Elipse 1140" cx="28" cy="28" r="28" transform="translate(24 24)" fill="url(#linear-gradient)"></circle></g><g id="Grupo_19087" data-name="Grupo 19087"><path id="Trazado_12787" data-name="Trazado 12787" d="M8414.884,2325.827c-.764-5.68,6.062-11.289,15.247-12.528,8.743-1.178,16.475,2.025,17.86,7.239a6.851,6.851,0,0,1,.163.807c.019.109.038.219.054.33,3.673,21.672-30.165,27.593-33.324,4.152" fill="#986529"></path><g id="Grupo_19083" data-name="Grupo 19083" opacity="0.3"><g id="Grupo_19082" data-name="Grupo 19082"><g id="Grupo_19081" data-name="Grupo 19081" clip-path="url(#clip-path)"><path id="Trazado_12788" data-name="Trazado 12788" d="M8414.882,2325.889a7.677,7.677,0,0,1,1.67-5.659c3.917,17.419,26.148,16.254,31.9,3.58,1.188,19.85-30.436,24.7-33.567,2.079" fill="#570000"></path></g></g></g><g id="Grupo_19086" data-name="Grupo 19086" opacity="0.6"><g id="Grupo_19085" data-name="Grupo 19085"><g id="Grupo_19084" data-name="Grupo 19084" clip-path="url(#clip-path-2)"><path id="Trazado_12789" data-name="Trazado 12789" d="M8447.971,2320.483l-2.212.262c-2.756-3.791-9.408-5.885-16.764-4.866-6.425.891-11.688,3.916-14,7.6,1.087-4.784,7.214-9.082,15.089-10.171,8.739-1.208,16.48,1.968,17.885,7.176" fill="#fff"></path></g></g></g><path id="Trazado_12790" data-name="Trazado 12790" d="M8413.484,2325.4c-.338-6.264,6.693-12.085,16.417-13.43a24.2,24.2,0,0,1,12.9,1.487c3.839,1.7,6.2,4.4,6.661,7.611,1.26,6.72-.737,12.66-5.627,16.728a19.81,19.81,0,0,1-19.292,3.191c-6.087-2.358-9.993-7.656-11-14.917h0c-.031-.223-.052-.446-.063-.669m1.4.485v0Zm32.229-1.92a18.726,18.726,0,0,0-.3-2.428q-.007-.033-.012-.066c-.312-2.268-2.12-4.239-5.087-5.551a21.5,21.5,0,0,0-11.445-1.283c-8.285,1.146-14.723,6.2-14.054,11.064.865,6.249,4.169,10.786,9.3,12.775a17.045,17.045,0,0,0,16.6-2.749,13.826,13.826,0,0,0,5-11.762" fill="#570000"></path><path id="Trazado_12791" data-name="Trazado 12791" d="M8413.539,2325.959a1.346,1.346,0,0,1,2.678-.255c.671,4.85,8.241,7.98,16.53,6.833s14.728-6.228,14.055-11.063a1.347,1.347,0,0,1,2.668-.37c.9,6.509-6.283,12.707-16.354,14.1s-18.665-2.617-19.567-9.131c0-.038-.008-.075-.01-.114" fill="#570000"></path><path id="Trazado_12792" data-name="Trazado 12792" d="M8428.315,2319.931c.155,1.108-.346,2.094-1.119,2.2s-1.526-.7-1.683-1.809.346-2.094,1.119-2.2,1.526.7,1.683,1.809" fill="#570000"></path><path id="Trazado_12793" data-name="Trazado 12793" d="M8435.771,2318.471c.155,1.108-.346,2.095-1.119,2.2s-1.527-.7-1.683-1.809.346-2.094,1.119-2.2,1.526.7,1.683,1.809" fill="#570000"></path><path id="Trazado_12794" data-name="Trazado 12794" d="M8420.391,2314.033a1.055,1.055,0,0,1-.872-1.651,7.145,7.145,0,0,1,5.984-3.1,1.057,1.057,0,0,1-.012,2.114h-.01l-.037,0a4.994,4.994,0,0,0-4.179,2.18,1.057,1.057,0,0,1-.875.461" fill="#570000"></path><path id="Trazado_12795" data-name="Trazado 12795" d="M8436.934,2310.807a1.057,1.057,0,0,1-.585-.177,4.984,4.984,0,0,0-4.689-.449l-.035.015a1.057,1.057,0,0,1-.819-1.949,7.148,7.148,0,0,1,6.717.624,1.056,1.056,0,0,1-.588,1.936" fill="#570000"></path><path id="Trazado_12796" data-name="Trazado 12796" d="M8435.375,2318.109c0,.417-.243.754-.544.754s-.543-.337-.543-.754.243-.753.543-.753.544.337.544.753" fill="#fff"></path><path id="Trazado_12797" data-name="Trazado 12797" d="M8428,2319.422c0,.416-.244.753-.544.753s-.544-.337-.544-.753.243-.754.544-.754.544.338.544.754" fill="#fff"></path><path id="Trazado_12798" data-name="Trazado 12798" d="M8429.786,2328.095c-4.047,0-7.512-1.25-8.328-2a1.233,1.233,0,0,1,1.649-1.833,15.254,15.254,0,0,0,6.516,1.369,12.893,12.893,0,0,0,10.085-4.2,1.232,1.232,0,1,1,1.851,1.628,15,15,0,0,1-10.771,5.014q-.507.025-1,.026m-6.668-3.826.011.01-.011-.01" fill="#570000"></path><path id="Trazado_12799" data-name="Trazado 12799" d="M8421.565,2327.307h-.03a1.057,1.057,0,0,1-1.027-1.085,3.76,3.76,0,0,1,1.38-2.482,1.057,1.057,0,0,1,1.357,1.62,1.851,1.851,0,0,0-.624.92,1.057,1.057,0,0,1-1.056,1.027" fill="#570000"></path></g></g></svg>