<svg xmlns="http://www.w3.org/2000/svg" width="60.408" height="46.75" viewBox="0 0 60.408 46.75">
  <g id="Grupo_11655" data-name="Grupo 11655" transform="translate(-579.634 -8598.719)">
    <g id="Grupo_11647" data-name="Grupo 11647">
      <g id="Grupo_11643" data-name="Grupo 11643">
        <path id="Trazado_6906" data-name="Trazado 6906" d="M611.88,8614.859a1.737,1.737,0,0,1-.683-1.946c.9-2.938,3.9-10.481,11.384-12.827,7.371-2.31,13.721,1.143,16.091,2.718a1.736,1.736,0,0,1,.712,1.915,17.819,17.819,0,0,1-11.371,12.191A18,18,0,0,1,611.88,8614.859Z" fill="#6cbc72"/>
        <path id="Trazado_6907" data-name="Trazado 6907" d="M621.931,8618.545a18.707,18.707,0,0,1-10.385-3.2h0a2.32,2.32,0,0,1-.916-2.61c.975-3.17,4.073-10.806,11.774-13.22,7.6-2.383,14.14,1.157,16.6,2.79a2.325,2.325,0,0,1,.954,2.569,18.409,18.409,0,0,1-11.75,12.592A19.242,19.242,0,0,1,621.931,8618.545Zm-9.717-4.176a17.441,17.441,0,0,0,15.606,1.979,17.232,17.232,0,0,0,10.993-11.79,1.142,1.142,0,0,0-.469-1.261c-2.315-1.539-8.469-4.877-15.586-2.646-7.162,2.246-10.074,9.444-10.994,12.436A1.139,1.139,0,0,0,612.214,8614.369Z" fill="#458749"/>
      </g>
      <g id="Grupo_11644" data-name="Grupo 11644">
        <path id="Trazado_6908" data-name="Trazado 6908" d="M614.076,8613.352a.687.687,0,0,1-.232-1.334l25.248-9.058a.687.687,0,1,1,.464,1.293l-25.248,9.058A.668.668,0,0,1,614.076,8613.352Z" fill="#458749"/>
      </g>
      <g id="Grupo_11645" data-name="Grupo 11645">
        <path id="Trazado_6909" data-name="Trazado 6909" d="M620.744,8610.866a.632.632,0,0,1-.1-.009.6.6,0,0,1-.481-.688l.908-5.141a.593.593,0,1,1,1.168.206l-.908,5.142A.593.593,0,0,1,620.744,8610.866Z" fill="#458749"/>
      </g>
      <g id="Grupo_11646" data-name="Grupo 11646">
        <path id="Trazado_6910" data-name="Trazado 6910" d="M631.141,8610.219a.59.59,0,0,1-.272-.065l-3.522-1.82a.593.593,0,1,1,.544-1.054l3.522,1.819a.593.593,0,0,1-.272,1.12Z" fill="#458749"/>
      </g>
    </g>
    <g id="Grupo_11652" data-name="Grupo 11652">
      <g id="Grupo_11648" data-name="Grupo 11648">
        <path id="Trazado_6911" data-name="Trazado 6911" d="M608.155,8618.948a1.763,1.763,0,0,0,.7-1.972c-.91-2.979-3.933-10.631-11.512-13.022-7.465-2.357-13.908,1.13-16.313,2.722a1.76,1.76,0,0,0-.726,1.939,18.308,18.308,0,0,0,27.855,10.333Z" fill="#6cbc72"/>
        <path id="Trazado_6912" data-name="Trazado 6912" d="M598,8622.662a19.518,19.518,0,0,1-6.392-1.1,18.657,18.657,0,0,1-11.884-12.785,2.356,2.356,0,0,1,.973-2.6c2.493-1.649,9.124-5.225,16.826-2.794,7.8,2.462,10.924,10.206,11.906,13.421a2.352,2.352,0,0,1-.933,2.645A18.982,18.982,0,0,1,598,8622.662Zm-5.809-18.9a20.281,20.281,0,0,0-10.831,3.416,1.157,1.157,0,0,0-.477,1.277A17.461,17.461,0,0,0,592,8620.425a18.341,18.341,0,0,0,6,1.034,17.745,17.745,0,0,0,9.82-3.009h0a1.154,1.154,0,0,0,.459-1.3c-.926-3.033-3.863-10.335-11.118-12.625A16.429,16.429,0,0,0,592.188,8603.761Z" fill="#458749"/>
      </g>
      <g id="Grupo_11649" data-name="Grupo 11649">
        <path id="Trazado_6913" data-name="Trazado 6913" d="M605.934,8617.415a.686.686,0,0,1-.236-.041l-25.571-9.232a.7.7,0,1,1,.473-1.309l25.57,9.231a.7.7,0,0,1-.236,1.351Z" fill="#458749"/>
      </g>
      <g id="Grupo_11650" data-name="Grupo 11650">
        <path id="Trazado_6914" data-name="Trazado 6914" d="M599.181,8614.882a.6.6,0,0,1-.592-.5l-.91-5.212a.6.6,0,1,1,1.185-.207l.909,5.213a.6.6,0,0,1-.488.7A.631.631,0,0,1,599.181,8614.882Z" fill="#458749"/>
      </g>
      <g id="Grupo_11651" data-name="Grupo 11651">
        <path id="Trazado_6915" data-name="Trazado 6915" d="M588.645,8614.206a.6.6,0,0,1-.275-1.135l3.573-1.838a.6.6,0,1,1,.55,1.068l-3.573,1.838A.6.6,0,0,1,588.645,8614.206Z" fill="#458749"/>
      </g>
    </g>
    <g id="Grupo_11653" data-name="Grupo 11653">
      <line id="Línea_892" data-name="Línea 892" y2="44.02" transform="translate(610.266 8600.166)" fill="#6cbc72"/>
      <path id="Trazado_6916" data-name="Trazado 6916" d="M610.266,8645.469a1.283,1.283,0,0,1-1.283-1.282v-44.021a1.283,1.283,0,0,1,2.566,0v44.021A1.283,1.283,0,0,1,610.266,8645.469Z" fill="#458749"/>
    </g>
    <g id="Grupo_11654" data-name="Grupo 11654">
      <line id="Línea_893" data-name="Línea 893" x2="10.107" y2="7.757" transform="translate(610.266 8622.175)" fill="#6cbc72"/>
      <path id="Trazado_6917" data-name="Trazado 6917" d="M622.008,8630.528a1.276,1.276,0,0,1-.972-.139l-11.109-6.465a1.283,1.283,0,0,1,1.306-2.208l11.109,6.465a1.283,1.283,0,0,1-.334,2.347Z" fill="#458749"/>
    </g>
  </g>
</svg>
