<svg id="Capa_1" data-name="Capa 1" xmlns="http://www.w3.org/2000/svg" xmlns:xlink="http://www.w3.org/1999/xlink" viewBox="0 0 56 56"><defs><style>.cls-1{fill:none;}.cls-2{fill:url(#Degradado_sin_nombre_136);}.cls-3{fill:#986529;}.cls-4{opacity:0.3;}.cls-5{clip-path:url(#clip-path);}.cls-6{fill:#570000;}.cls-7{opacity:0.6;}.cls-8{clip-path:url(#clip-path-2);}.cls-9{fill:#fff;}</style><linearGradient id="Degradado_sin_nombre_136" x1="27.834" y1="-0.563" x2="28.167" y2="56.729" gradientUnits="userSpaceOnUse"><stop offset="0" stop-color="#ffe88d"/><stop offset="0.01" stop-color="#ffe88d"/><stop offset="0.069" stop-color="#f5d586"/><stop offset="0.246" stop-color="#da9f72"/><stop offset="0.42" stop-color="#c37262"/><stop offset="0.586" stop-color="#b24f55"/><stop offset="0.742" stop-color="#a5364b"/><stop offset="0.884" stop-color="#9e2746"/><stop offset="1" stop-color="#9b2244"/></linearGradient><clipPath id="clip-path"><rect class="cls-1" x="11.168" y="23.279" width="33.661" height="20.651"/></clipPath><clipPath id="clip-path-2"><rect class="cls-1" x="11.344" y="16.1" width="32.974" height="10.426"/></clipPath></defs><title>TOKEN</title><circle class="cls-2" cx="28" cy="28" r="28"/><path class="cls-3" d="M11.231,28.877c-.763-5.681,6.062-11.29,15.247-12.528,8.744-1.179,16.474,2.025,17.86,7.238a6.492,6.492,0,0,1,.163.808c.019.109.038.218.054.329C48.229,46.4,14.391,52.318,11.231,28.877"/><g class="cls-4"><g class="cls-5"><path class="cls-6" d="M11.23,28.938A7.664,7.664,0,0,1,12.9,23.28C16.816,40.7,39.047,39.534,44.8,26.86c1.188,19.849-30.435,24.7-33.566,2.078"/></g></g><g class="cls-7"><g class="cls-8"><path class="cls-9" d="M44.318,23.533l-2.212.262C39.35,20,32.7,17.91,25.342,18.929c-6.424.891-11.688,3.915-14,7.6,1.088-4.784,7.215-9.081,15.089-10.17,8.739-1.208,16.481,1.967,17.885,7.176"/></g></g><path class="cls-6" d="M9.831,28.454c-.338-6.264,6.694-12.085,16.417-13.431a24.217,24.217,0,0,1,12.9,1.487c3.839,1.7,6.2,4.4,6.661,7.612,1.26,6.72-.737,12.659-5.627,16.728a19.81,19.81,0,0,1-19.292,3.19c-6.087-2.358-9.992-7.656-11-14.917h0c-.031-.222-.053-.446-.065-.668m1.4.485v0Zm32.229-1.92a18.435,18.435,0,0,0-.3-2.429c0-.022-.008-.043-.011-.066-.313-2.267-2.12-4.239-5.087-5.55a21.483,21.483,0,0,0-11.444-1.283c-8.287,1.146-14.724,6.2-14.055,11.064.865,6.249,4.169,10.785,9.3,12.774a17.045,17.045,0,0,0,16.6-2.749,13.823,13.823,0,0,0,4.995-11.761"/><path class="cls-6" d="M9.886,29.009a1.346,1.346,0,0,1,2.678-.255c.672,4.85,8.241,7.979,16.53,6.833s14.729-6.229,14.055-11.064a1.347,1.347,0,0,1,2.668-.369c.9,6.509-6.283,12.706-16.354,14.1S10.8,35.636,9.9,29.123c-.005-.038-.009-.076-.011-.114"/><path class="cls-6" d="M24.662,22.981c.156,1.108-.345,2.094-1.118,2.2s-1.527-.7-1.683-1.808.345-2.094,1.119-2.2,1.527.7,1.682,1.809"/><path class="cls-6" d="M32.118,21.521c.156,1.108-.345,2.094-1.119,2.2s-1.526-.7-1.682-1.81.345-2.093,1.119-2.2,1.527.7,1.682,1.809"/><path class="cls-6" d="M16.738,17.083a1.056,1.056,0,0,1-.872-1.652,7.145,7.145,0,0,1,5.985-3.1,1.057,1.057,0,0,1-.013,2.114h-.047a4.991,4.991,0,0,0-4.178,2.179,1.055,1.055,0,0,1-.875.462"/><path class="cls-6" d="M33.281,13.857a1.042,1.042,0,0,1-.584-.178,4.99,4.99,0,0,0-4.691-.449l-.035.015a1.057,1.057,0,0,1-.819-1.948,7.142,7.142,0,0,1,6.716.623,1.057,1.057,0,0,1-.587,1.937"/><path class="cls-9" d="M31.723,21.159c0,.416-.244.754-.545.754s-.543-.338-.543-.754.243-.754.543-.754.545.338.545.754"/><path class="cls-9" d="M24.35,22.471c0,.417-.244.754-.544.754s-.544-.337-.544-.754.244-.753.544-.753.544.337.544.753"/><path class="cls-6" d="M26.133,31.145c-4.047,0-7.512-1.251-8.328-2a1.233,1.233,0,0,1,1.649-1.833,15.291,15.291,0,0,0,6.516,1.369,12.9,12.9,0,0,0,10.085-4.2,1.233,1.233,0,0,1,1.851,1.629,15,15,0,0,1-10.771,5.014c-.337.017-.672.026-1,.026m-6.668-3.826.012.01-.012-.01"/><path class="cls-6" d="M17.912,30.357h-.029a1.056,1.056,0,0,1-1.028-1.085,3.755,3.755,0,0,1,1.38-2.481,1.057,1.057,0,0,1,1.357,1.62,1.862,1.862,0,0,0-.624.919,1.057,1.057,0,0,1-1.056,1.028"/></svg>